<svg width="23" height="19" viewBox="0 0 23 19" fill="none" xmlns="http://www.w3.org/2000/svg">
<path d="M21.1978 1.1527C21.7456 1.22293 22.1327 1.72394 22.0625 2.27174L20.918 11.1987C20.8478 11.7465 20.3468 12.1336 19.799 12.0634C19.2512 11.9932 18.864 11.4922 18.9342 10.9444L19.9515 3.0093L12.0165 1.99198C11.4687 1.92175 11.0815 1.42074 11.1518 0.872936C11.222 0.325135 11.723 -0.0620123 12.2708 0.00821891L21.1978 1.1527ZM0.61145 17.9539L2.6226e-06 17.1626L10.2296 9.25796L10.841 10.0492L11.4525 10.8405L1.2229 18.7452L0.61145 17.9539ZM10.841 10.0492L10.2296 9.25796L20.4591 1.35329L21.0706 2.14458L21.682 2.93586L11.4525 10.8405L10.841 10.0492Z" fill="black"/>
</svg>
