<svg width="88" height="56" viewBox="0 0 88 56" fill="none" xmlns="http://www.w3.org/2000/svg">
<g filter="url(#filter0_d_20_126)">
<g filter="url(#filter1_i_20_126)">
<path d="M74.7635 24.4653C74.9678 23.2927 75.0744 22.0864 75.0744 20.8552C75.0744 9.33718 65.7501 0 54.2479 0C45.6971 0 38.3498 5.16035 35.1424 12.5408C32.544 10.2943 29.1722 8.93793 25.4876 8.93793C17.2718 8.93793 10.6116 15.6814 10.6116 24C10.6116 24.4632 10.6322 24.9215 10.6726 25.3741C6.72099 27.3123 4 31.3794 4 36.0828C4 42.6645 9.32818 48 15.9008 48H72.0992C78.6718 48 84 42.6645 84 36.0828C84 30.4183 80.0534 25.6768 74.7635 24.4653Z" fill="url(#paint0_linear_20_126)" fill-opacity="0.8"/>
</g>
</g>
<defs>
<filter id="filter0_d_20_126" x="-23" y="-27" width="134" height="102" filterUnits="userSpaceOnUse" color-interpolation-filters="sRGB">
<feFlood flood-opacity="0" result="BackgroundImageFix"/>
<feColorMatrix in="SourceAlpha" type="matrix" values="0 0 0 0 0 0 0 0 0 0 0 0 0 0 0 0 0 0 127 0" result="hardAlpha"/>
<feOffset dy="4"/>
<feGaussianBlur stdDeviation="2"/>
<feComposite in2="hardAlpha" operator="out"/>
<feColorMatrix type="matrix" values="0 0 0 0 0 0 0 0 0 0 0 0 0 0 0 0 0 0 0.25 0"/>
<feBlend mode="normal" in2="BackgroundImageFix" result="effect1_dropShadow_20_126"/>
<feBlend mode="normal" in="SourceGraphic" in2="effect1_dropShadow_20_126" result="shape"/>
</filter>
<filter id="filter1_i_20_126" x="4" y="0" width="80" height="58" filterUnits="userSpaceOnUse" color-interpolation-filters="sRGB">
<feFlood flood-opacity="0" result="BackgroundImageFix"/>
<feBlend mode="normal" in="SourceGraphic" in2="BackgroundImageFix" result="shape"/>
<feColorMatrix in="SourceAlpha" type="matrix" values="0 0 0 0 0 0 0 0 0 0 0 0 0 0 0 0 0 0 127 0" result="hardAlpha"/>
<feOffset dy="11"/>
<feGaussianBlur stdDeviation="5"/>
<feComposite in2="hardAlpha" operator="arithmetic" k2="-1" k3="1"/>
<feColorMatrix type="matrix" values="0 0 0 0 1 0 0 0 0 1 0 0 0 0 1 0 0 0 1 0"/>
<feBlend mode="normal" in2="shape" result="effect1_innerShadow_20_126"/>
</filter>
<linearGradient id="paint0_linear_20_126" x1="9.08834" y1="43.7143" x2="90.4101" y2="-16.4544" gradientUnits="userSpaceOnUse">
<stop stop-color="white"/>
<stop offset="1" stop-color="white" stop-opacity="0.58"/>
</linearGradient>
</defs>
</svg>
