<svg width="29" height="29" viewBox="0 0 29 29" fill="none" xmlns="http://www.w3.org/2000/svg">
<path d="M7.25004 16.9167C6.58546 16.9167 6.01653 16.68 5.54327 16.2068C5.07001 15.7335 4.83337 15.1646 4.83337 14.5C4.83337 13.8354 5.07001 13.2665 5.54327 12.7932C6.01653 12.32 6.58546 12.0833 7.25004 12.0833C7.91462 12.0833 8.48355 12.32 8.95681 12.7932C9.43008 13.2665 9.66671 13.8354 9.66671 14.5C9.66671 15.1646 9.43008 15.7335 8.95681 16.2068C8.48355 16.68 7.91462 16.9167 7.25004 16.9167ZM14.5 16.9167C13.8355 16.9167 13.2665 16.68 12.7933 16.2068C12.32 15.7335 12.0834 15.1646 12.0834 14.5C12.0834 13.8354 12.32 13.2665 12.7933 12.7932C13.2665 12.32 13.8355 12.0833 14.5 12.0833C15.1646 12.0833 15.7335 12.32 16.2068 12.7932C16.6801 13.2665 16.9167 13.8354 16.9167 14.5C16.9167 15.1646 16.6801 15.7335 16.2068 16.2068C15.7335 16.68 15.1646 16.9167 14.5 16.9167ZM21.75 16.9167C21.0855 16.9167 20.5165 16.68 20.0433 16.2068C19.57 15.7335 19.3334 15.1646 19.3334 14.5C19.3334 13.8354 19.57 13.2665 20.0433 12.7932C20.5165 12.32 21.0855 12.0833 21.75 12.0833C22.4146 12.0833 22.9835 12.32 23.4568 12.7932C23.9301 13.2665 24.1667 13.8354 24.1667 14.5C24.1667 15.1646 23.9301 15.7335 23.4568 16.2068C22.9835 16.68 22.4146 16.9167 21.75 16.9167Z" fill="#1D1B20"/>
</svg>
