<svg width="97" height="81" viewBox="0 0 97 81" fill="none" xmlns="http://www.w3.org/2000/svg">
<g filter="url(#filter0_i_18_98)">
<path d="M28.2341 60.4688C24.7049 65.0625 19.7641 74.25 28.2341 74.25C36.7042 74.25 31.7633 65.0625 28.2341 60.4688Z" fill="#00BCFF"/>
</g>
<g filter="url(#filter1_i_18_98)">
<path d="M48.0749 67.2188C44.5458 71.8125 39.6049 81 48.0749 81C56.545 81 51.6041 71.8125 48.0749 67.2188Z" fill="#00BCFF"/>
</g>
<g filter="url(#filter2_i_18_98)">
<path d="M66.4985 60.4688C62.9693 65.0625 58.0285 74.25 66.4985 74.25C74.9686 74.25 70.0277 65.0625 66.4985 60.4688Z" fill="#00BCFF"/>
</g>
<g filter="url(#filter3_d_18_98)">
<g filter="url(#filter4_i_18_98)">
<path d="M82.7244 26.7211C82.9517 25.4404 83.0702 24.1228 83.0702 22.7781C83.0702 10.1981 72.6969 0 59.9008 0C50.388 0 42.2142 5.63615 38.6459 13.6971C35.7552 11.2435 32.0041 9.76204 27.905 9.76204C18.7649 9.76204 11.3554 17.1273 11.3554 26.2129C11.3554 26.7188 11.3783 27.2194 11.4233 27.7137C7.0271 29.8307 4 34.2727 4 39.4097C4 46.5983 9.9276 52.4258 17.2397 52.4258H79.7603C87.0724 52.4258 93 46.5983 93 39.4097C93 33.223 88.6094 28.0443 82.7244 26.7211Z" fill="url(#paint0_linear_18_98)" fill-opacity="0.8"/>
</g>
</g>
<defs>
<filter id="filter0_i_18_98" x="23.5574" y="60.4688" width="9.35352" height="16.7812" filterUnits="userSpaceOnUse" color-interpolation-filters="sRGB">
<feFlood flood-opacity="0" result="BackgroundImageFix"/>
<feBlend mode="normal" in="SourceGraphic" in2="BackgroundImageFix" result="shape"/>
<feColorMatrix in="SourceAlpha" type="matrix" values="0 0 0 0 0 0 0 0 0 0 0 0 0 0 0 0 0 0 127 0" result="hardAlpha"/>
<feOffset dy="9"/>
<feGaussianBlur stdDeviation="1.5"/>
<feComposite in2="hardAlpha" operator="arithmetic" k2="-1" k3="1"/>
<feColorMatrix type="matrix" values="0 0 0 0 1 0 0 0 0 1 0 0 0 0 1 0 0 0 0.21 0"/>
<feBlend mode="normal" in2="shape" result="effect1_innerShadow_18_98"/>
</filter>
<filter id="filter1_i_18_98" x="43.3982" y="67.2188" width="9.35352" height="16.7812" filterUnits="userSpaceOnUse" color-interpolation-filters="sRGB">
<feFlood flood-opacity="0" result="BackgroundImageFix"/>
<feBlend mode="normal" in="SourceGraphic" in2="BackgroundImageFix" result="shape"/>
<feColorMatrix in="SourceAlpha" type="matrix" values="0 0 0 0 0 0 0 0 0 0 0 0 0 0 0 0 0 0 127 0" result="hardAlpha"/>
<feOffset dy="9"/>
<feGaussianBlur stdDeviation="1.5"/>
<feComposite in2="hardAlpha" operator="arithmetic" k2="-1" k3="1"/>
<feColorMatrix type="matrix" values="0 0 0 0 1 0 0 0 0 1 0 0 0 0 1 0 0 0 0.21 0"/>
<feBlend mode="normal" in2="shape" result="effect1_innerShadow_18_98"/>
</filter>
<filter id="filter2_i_18_98" x="61.8218" y="60.4688" width="9.35352" height="16.7812" filterUnits="userSpaceOnUse" color-interpolation-filters="sRGB">
<feFlood flood-opacity="0" result="BackgroundImageFix"/>
<feBlend mode="normal" in="SourceGraphic" in2="BackgroundImageFix" result="shape"/>
<feColorMatrix in="SourceAlpha" type="matrix" values="0 0 0 0 0 0 0 0 0 0 0 0 0 0 0 0 0 0 127 0" result="hardAlpha"/>
<feOffset dy="9"/>
<feGaussianBlur stdDeviation="1.5"/>
<feComposite in2="hardAlpha" operator="arithmetic" k2="-1" k3="1"/>
<feColorMatrix type="matrix" values="0 0 0 0 1 0 0 0 0 1 0 0 0 0 1 0 0 0 0.21 0"/>
<feBlend mode="normal" in2="shape" result="effect1_innerShadow_18_98"/>
</filter>
<filter id="filter3_d_18_98" x="0" y="0" width="97" height="60.4258" filterUnits="userSpaceOnUse" color-interpolation-filters="sRGB">
<feFlood flood-opacity="0" result="BackgroundImageFix"/>
<feColorMatrix in="SourceAlpha" type="matrix" values="0 0 0 0 0 0 0 0 0 0 0 0 0 0 0 0 0 0 127 0" result="hardAlpha"/>
<feOffset dy="4"/>
<feGaussianBlur stdDeviation="2"/>
<feComposite in2="hardAlpha" operator="out"/>
<feColorMatrix type="matrix" values="0 0 0 0 0 0 0 0 0 0 0 0 0 0 0 0 0 0 0.25 0"/>
<feBlend mode="normal" in2="BackgroundImageFix" result="effect1_dropShadow_18_98"/>
<feBlend mode="normal" in="SourceGraphic" in2="effect1_dropShadow_18_98" result="shape"/>
</filter>
<filter id="filter4_i_18_98" x="4" y="0" width="89" height="62.4258" filterUnits="userSpaceOnUse" color-interpolation-filters="sRGB">
<feFlood flood-opacity="0" result="BackgroundImageFix"/>
<feBlend mode="normal" in="SourceGraphic" in2="BackgroundImageFix" result="shape"/>
<feColorMatrix in="SourceAlpha" type="matrix" values="0 0 0 0 0 0 0 0 0 0 0 0 0 0 0 0 0 0 127 0" result="hardAlpha"/>
<feOffset dy="11"/>
<feGaussianBlur stdDeviation="5"/>
<feComposite in2="hardAlpha" operator="arithmetic" k2="-1" k3="1"/>
<feColorMatrix type="matrix" values="0 0 0 0 1 0 0 0 0 1 0 0 0 0 1 0 0 0 1 0"/>
<feBlend mode="normal" in2="shape" result="effect1_innerShadow_18_98"/>
</filter>
<linearGradient id="paint0_linear_18_98" x1="9.66078" y1="47.7449" x2="98.9465" y2="-19.5437" gradientUnits="userSpaceOnUse">
<stop stop-color="white"/>
<stop offset="1" stop-color="white" stop-opacity="0.58"/>
</linearGradient>
</defs>
</svg>
