<svg width="75" height="92" viewBox="0 0 75 92" fill="none" xmlns="http://www.w3.org/2000/svg">
<path d="M38.7449 6.41538C32.2982 15.2831 31.1803 27.3851 36.8672 37.3642C42.5542 47.3434 53.4582 52.4136 64.2619 51.1912C61.9648 54.351 58.991 57.1002 55.4074 59.1963C41.7667 67.1749 24.4558 62.6705 16.7424 49.1355C9.02906 35.6005 13.8341 18.1602 27.4747 10.1816C31.0583 8.08549 34.8953 6.85095 38.7449 6.41538Z" fill="url(#paint0_linear_18_82)"/>
<g filter="url(#filter0_d_18_82)">
<g filter="url(#filter1_i_18_82)">
<path d="M64.1363 50.7631C64.2882 49.8896 64.3673 48.9911 64.3673 48.074C64.3673 39.4947 57.4384 32.5398 48.8911 32.5398C42.5369 32.5398 37.0771 36.3835 34.6936 41.8809C32.7628 40.2076 30.2572 39.1973 27.5191 39.1973C21.4139 39.1973 16.4647 44.2203 16.4647 50.4165C16.4647 50.7615 16.48 51.1029 16.5101 51.44C13.5736 52.8837 11.5516 55.9131 11.5516 59.4164C11.5516 64.3189 15.511 68.2931 20.3952 68.2931H62.1564C67.0406 68.2931 71 64.3189 71 59.4164C71 55.1972 68.0673 51.6655 64.1363 50.7631Z" fill="url(#paint1_linear_18_82)" fill-opacity="0.8"/>
</g>
</g>
<path d="M27.5496 58.6255C24.0493 63.2928 19.1489 72.6274 27.5496 72.6274C35.9504 72.6274 31.0499 63.2928 27.5496 58.6255Z" fill="#00BCFF"/>
<path d="M54.8126 58.6255C51.3122 63.2928 46.4118 72.6274 54.8126 72.6274C63.2133 72.6274 58.3129 63.2928 54.8126 58.6255Z" fill="#00BCFF"/>
<path d="M41.7491 77.998C38.2488 82.6653 33.3483 91.9999 41.7491 91.9999C50.1498 91.9999 45.2494 82.6653 41.7491 77.998Z" fill="#00BCFF"/>
<defs>
<filter id="filter0_d_18_82" x="-15.4485" y="5.53979" width="113.448" height="89.7534" filterUnits="userSpaceOnUse" color-interpolation-filters="sRGB">
<feFlood flood-opacity="0" result="BackgroundImageFix"/>
<feColorMatrix in="SourceAlpha" type="matrix" values="0 0 0 0 0 0 0 0 0 0 0 0 0 0 0 0 0 0 127 0" result="hardAlpha"/>
<feOffset dy="4"/>
<feGaussianBlur stdDeviation="2"/>
<feComposite in2="hardAlpha" operator="out"/>
<feColorMatrix type="matrix" values="0 0 0 0 0 0 0 0 0 0 0 0 0 0 0 0 0 0 0.25 0"/>
<feBlend mode="normal" in2="BackgroundImageFix" result="effect1_dropShadow_18_82"/>
<feBlend mode="normal" in="SourceGraphic" in2="effect1_dropShadow_18_82" result="shape"/>
</filter>
<filter id="filter1_i_18_82" x="11.5515" y="32.5398" width="59.4485" height="45.7534" filterUnits="userSpaceOnUse" color-interpolation-filters="sRGB">
<feFlood flood-opacity="0" result="BackgroundImageFix"/>
<feBlend mode="normal" in="SourceGraphic" in2="BackgroundImageFix" result="shape"/>
<feColorMatrix in="SourceAlpha" type="matrix" values="0 0 0 0 0 0 0 0 0 0 0 0 0 0 0 0 0 0 127 0" result="hardAlpha"/>
<feOffset dy="11"/>
<feGaussianBlur stdDeviation="5"/>
<feComposite in2="hardAlpha" operator="arithmetic" k2="-1" k3="1"/>
<feColorMatrix type="matrix" values="0 0 0 0 1 0 0 0 0 1 0 0 0 0 1 0 0 0 1 0"/>
<feBlend mode="normal" in2="shape" result="effect1_innerShadow_18_82"/>
</filter>
<linearGradient id="paint0_linear_18_82" x1="40.1487" y1="1.71257" x2="29.6516" y2="64.4509" gradientUnits="userSpaceOnUse">
<stop stop-color="#FFEE94"/>
<stop offset="1" stop-color="#FF9900"/>
</linearGradient>
<linearGradient id="paint1_linear_18_82" x1="15.3328" y1="65.1009" x2="75.8643" y2="20.4202" gradientUnits="userSpaceOnUse">
<stop stop-color="white"/>
<stop offset="1" stop-color="white" stop-opacity="0.58"/>
</linearGradient>
</defs>
</svg>
