<svg width="800" height="800" viewBox="0 0 800 800" fill="none" xmlns="http://www.w3.org/2000/svg">
<path d="M183.339 400.002H566.626V399.977C640.287 399.977 699.976 340.285 699.976 266.651C699.976 192.994 640.287 133.301 566.626 133.301C492.996 133.301 433.303 192.994 433.303 266.651V266.676H433.352C433.352 275.881 440.797 283.352 450.001 283.352C459.204 283.352 466.651 275.881 466.651 266.676C466.651 266.456 466.651 266.237 466.651 265.992C466.993 211.159 511.72 166.627 566.625 166.627C621.778 166.627 666.652 211.501 666.652 266.651C666.652 321.778 621.778 366.651 566.625 366.651V366.676H183.339C174.134 366.676 166.663 374.147 166.663 383.352C166.663 392.557 174.134 400.002 183.339 400.002Z" fill="#CCD1D9"/>
<path d="M700 433.352H16.6631C7.45806 433.352 0 440.799 0 450.002C0 459.206 7.45806 466.678 16.6631 466.678H700C736.768 466.678 766.652 496.585 766.652 533.352C766.652 570.119 736.768 600.051 700 600.051C663.331 600.051 633.498 570.316 633.302 533.719C633.302 533.597 633.351 533.476 633.351 533.354C633.351 524.149 625.88 516.678 616.65 516.678C607.47 516.678 600 524.149 600 533.354H599.975C599.975 588.602 644.751 633.379 699.998 633.379C755.225 633.379 800 588.604 800 533.354C800.002 478.128 755.227 433.352 700 433.352Z" fill="#E6E9ED"/>
<path d="M483.303 499.978H116.663C107.458 499.978 100 507.447 100 516.652C100 525.857 107.458 533.327 116.663 533.327H483.303V533.302C510.89 533.302 533.35 555.764 533.35 583.327C533.35 610.914 510.89 633.376 483.303 633.376C455.959 633.376 433.694 611.305 433.303 584.058C433.303 583.815 433.352 583.569 433.352 583.326C433.352 574.121 425.881 566.675 416.664 566.675C407.459 566.675 400.001 574.122 400.001 583.326H399.94C399.94 629.371 437.256 666.7 483.303 666.7C529.349 666.7 566.651 629.369 566.651 583.326C566.65 537.307 529.347 499.978 483.303 499.978Z" fill="#AAB2BC"/>
</svg>
